# xmcd
#
# Track frame offsets:
#	150
#	18220
#	34430
#	44047
#	58500
#	71777
#	88172
#	100237
#	114802
#	127170
#	149025
#	157615
#	165552
#	174890
#	186437
#	202305
#	214412
#	220227
#	228975
#	241377
#	247225
#
# Disc length: 3455 seconds
#
# Revision: 0
# Processed by: cddbd v1.5.2PL0 Copyright (c) Steve Scherf et al.
# Submitted via: audiograbber 1.83.01
#
DISCID=420d7d15
DTITLE=Various Artist - Sandstone and Pine Rosin
DYEAR=1900
DGENRE=
TTITLE0=Cumberlin' Land
TTITLE1=Cumberland Gap
TTITLE2=Pinnacle Mountain Breakdown
TTITLE3=Yes Pappy, Yes
TTITLE4=Coal Creek March
TTITLE5=Cross Mountain Mines Explosion
TTITLE6=New River Train
TTITLE7=Southern No. 111
TTITLE8=I Feel Like Traveling On
TTITLE9=Hills of Roane County
TTITLE10=Zollie's Retreat
TTITLE11=Sand
TTITLE12=Fire on the Mountain
TTITLE13=Black Mountain Rag
TTITLE14=Essence of Sequatchie County
TTITLE15=Sequatchie Valley
TTITLE16=Race Between the Train and the Model T
TTITLE17=The Bible's True
TTITLE18=Goin' to Chattanooga
TTITLE19=Weevily Wheat
TTITLE20=Buddy Won't You Roll Down the Line
EXTD=
EXTT0=
EXTT1=
EXTT2=
EXTT3=
EXTT4=
EXTT5=
EXTT6=
EXTT7=
EXTT8=
EXTT9=
EXTT10=
EXTT11=
EXTT12=
EXTT13=
EXTT14=
EXTT15=
EXTT16=
EXTT17=
EXTT18=
EXTT19=
EXTT20=
PLAYORDER=
